<mxfile host="app.diagrams.net" modified="2023-05-20T02:34:39.636Z" agent="Mozilla/5.0 (Windows NT 10.0; Win64; x64) AppleWebKit/537.36 (KHTML, like Gecko) Chrome/113.0.0.0 Safari/537.36" etag="GqIGKnG-0uBIW2RbbtDd" version="21.3.2" type="device">
  <diagram name="Página-1" id="eutRkEEPKsezAWd-uyYn">
    <mxGraphModel dx="1318" dy="576" grid="1" gridSize="10" guides="1" tooltips="1" connect="1" arrows="1" fold="1" page="1" pageScale="1" pageWidth="827" pageHeight="1169" math="0" shadow="0">
      <root>
        <mxCell id="0" />
        <mxCell id="1" parent="0" />
        <mxCell id="KljS54eoszbg3P8RCO2P-25" style="edgeStyle=orthogonalEdgeStyle;rounded=0;orthogonalLoop=1;jettySize=auto;html=1;exitX=0.5;exitY=1;exitDx=0;exitDy=0;entryX=0.5;entryY=0;entryDx=0;entryDy=0;" edge="1" parent="1" source="D4cUqvOeYQzDFqKzps2J-1" target="KljS54eoszbg3P8RCO2P-22">
          <mxGeometry relative="1" as="geometry" />
        </mxCell>
        <mxCell id="D4cUqvOeYQzDFqKzps2J-1" value="Início" style="ellipse;whiteSpace=wrap;html=1;" parent="1" vertex="1">
          <mxGeometry x="345" y="50" width="120" height="50" as="geometry" />
        </mxCell>
        <mxCell id="KljS54eoszbg3P8RCO2P-12" style="edgeStyle=orthogonalEdgeStyle;rounded=0;orthogonalLoop=1;jettySize=auto;html=1;exitX=1;exitY=0.5;exitDx=0;exitDy=0;exitPerimeter=0;entryX=1;entryY=0.5;entryDx=0;entryDy=0;" edge="1" parent="1" source="KljS54eoszbg3P8RCO2P-8">
          <mxGeometry relative="1" as="geometry">
            <mxPoint x="530.0000000000018" y="343.75" as="targetPoint" />
          </mxGeometry>
        </mxCell>
        <mxCell id="KljS54eoszbg3P8RCO2P-24" style="edgeStyle=orthogonalEdgeStyle;rounded=0;orthogonalLoop=1;jettySize=auto;html=1;entryX=0.5;entryY=0;entryDx=0;entryDy=0;" edge="1" parent="1" source="KljS54eoszbg3P8RCO2P-22" target="KljS54eoszbg3P8RCO2P-23">
          <mxGeometry relative="1" as="geometry" />
        </mxCell>
        <mxCell id="KljS54eoszbg3P8RCO2P-22" value="num = 1" style="rounded=1;whiteSpace=wrap;html=1;" vertex="1" parent="1">
          <mxGeometry x="340" y="160" width="130" height="40" as="geometry" />
        </mxCell>
        <mxCell id="KljS54eoszbg3P8RCO2P-30" style="edgeStyle=orthogonalEdgeStyle;rounded=0;orthogonalLoop=1;jettySize=auto;html=1;entryX=0.5;entryY=0;entryDx=0;entryDy=0;" edge="1" parent="1" source="KljS54eoszbg3P8RCO2P-23" target="KljS54eoszbg3P8RCO2P-26">
          <mxGeometry relative="1" as="geometry">
            <mxPoint x="405" y="340" as="targetPoint" />
          </mxGeometry>
        </mxCell>
        <mxCell id="KljS54eoszbg3P8RCO2P-23" value="soma = 0" style="rounded=1;whiteSpace=wrap;html=1;" vertex="1" parent="1">
          <mxGeometry x="340" y="260" width="130" height="40" as="geometry" />
        </mxCell>
        <mxCell id="KljS54eoszbg3P8RCO2P-32" style="edgeStyle=orthogonalEdgeStyle;rounded=0;orthogonalLoop=1;jettySize=auto;html=1;entryX=0.538;entryY=0.183;entryDx=0;entryDy=0;entryPerimeter=0;" edge="1" parent="1" source="KljS54eoszbg3P8RCO2P-26" target="KljS54eoszbg3P8RCO2P-27">
          <mxGeometry relative="1" as="geometry" />
        </mxCell>
        <mxCell id="KljS54eoszbg3P8RCO2P-43" style="edgeStyle=orthogonalEdgeStyle;rounded=0;orthogonalLoop=1;jettySize=auto;html=1;exitX=1;exitY=0.5;exitDx=0;exitDy=0;entryX=1;entryY=0.5;entryDx=0;entryDy=0;entryPerimeter=0;" edge="1" parent="1" source="KljS54eoszbg3P8RCO2P-26" target="KljS54eoszbg3P8RCO2P-38">
          <mxGeometry relative="1" as="geometry">
            <Array as="points">
              <mxPoint x="610" y="385" />
              <mxPoint x="610" y="840" />
            </Array>
          </mxGeometry>
        </mxCell>
        <mxCell id="KljS54eoszbg3P8RCO2P-26" value="num &amp;gt; 0" style="rhombus;whiteSpace=wrap;html=1;" vertex="1" parent="1">
          <mxGeometry x="340" y="350" width="130" height="70" as="geometry" />
        </mxCell>
        <mxCell id="KljS54eoszbg3P8RCO2P-33" style="edgeStyle=orthogonalEdgeStyle;rounded=0;orthogonalLoop=1;jettySize=auto;html=1;entryX=0;entryY=0;entryDx=60;entryDy=0;entryPerimeter=0;" edge="1" parent="1" source="KljS54eoszbg3P8RCO2P-27" target="KljS54eoszbg3P8RCO2P-28">
          <mxGeometry relative="1" as="geometry" />
        </mxCell>
        <mxCell id="KljS54eoszbg3P8RCO2P-27" value="&lt;br&gt;num" style="shape=manualInput;whiteSpace=wrap;html=1;" vertex="1" parent="1">
          <mxGeometry x="340" y="460" width="120" height="70" as="geometry" />
        </mxCell>
        <mxCell id="KljS54eoszbg3P8RCO2P-34" style="edgeStyle=orthogonalEdgeStyle;rounded=0;orthogonalLoop=1;jettySize=auto;html=1;exitX=0;exitY=0;exitDx=60;exitDy=60;exitPerimeter=0;entryX=0.5;entryY=0;entryDx=0;entryDy=0;" edge="1" parent="1" source="KljS54eoszbg3P8RCO2P-28" target="KljS54eoszbg3P8RCO2P-29">
          <mxGeometry relative="1" as="geometry" />
        </mxCell>
        <mxCell id="KljS54eoszbg3P8RCO2P-28" value="num" style="shape=display;whiteSpace=wrap;html=1;" vertex="1" parent="1">
          <mxGeometry x="340" y="585" width="120" height="60" as="geometry" />
        </mxCell>
        <mxCell id="KljS54eoszbg3P8RCO2P-35" style="edgeStyle=orthogonalEdgeStyle;rounded=0;orthogonalLoop=1;jettySize=auto;html=1;exitX=0;exitY=0.5;exitDx=0;exitDy=0;entryX=0;entryY=0.5;entryDx=0;entryDy=0;" edge="1" parent="1" source="KljS54eoszbg3P8RCO2P-29" target="KljS54eoszbg3P8RCO2P-26">
          <mxGeometry relative="1" as="geometry">
            <Array as="points">
              <mxPoint x="180" y="740" />
              <mxPoint x="180" y="385" />
            </Array>
          </mxGeometry>
        </mxCell>
        <mxCell id="KljS54eoszbg3P8RCO2P-29" value="soma = soma + num" style="rounded=1;whiteSpace=wrap;html=1;" vertex="1" parent="1">
          <mxGeometry x="340" y="710" width="120" height="60" as="geometry" />
        </mxCell>
        <mxCell id="KljS54eoszbg3P8RCO2P-36" value="Sim" style="text;strokeColor=none;align=center;fillColor=none;html=1;verticalAlign=middle;whiteSpace=wrap;rounded=0;" vertex="1" parent="1">
          <mxGeometry x="353" y="430" width="60" height="30" as="geometry" />
        </mxCell>
        <mxCell id="KljS54eoszbg3P8RCO2P-37" value="Não" style="text;strokeColor=none;align=center;fillColor=none;html=1;verticalAlign=middle;whiteSpace=wrap;rounded=0;" vertex="1" parent="1">
          <mxGeometry x="472.5" y="350" width="60" height="30" as="geometry" />
        </mxCell>
        <mxCell id="KljS54eoszbg3P8RCO2P-42" style="edgeStyle=orthogonalEdgeStyle;rounded=0;orthogonalLoop=1;jettySize=auto;html=1;exitX=0;exitY=0;exitDx=60;exitDy=60;exitPerimeter=0;entryX=0.5;entryY=0;entryDx=0;entryDy=0;" edge="1" parent="1" source="KljS54eoszbg3P8RCO2P-38" target="KljS54eoszbg3P8RCO2P-39">
          <mxGeometry relative="1" as="geometry">
            <mxPoint x="399.6470588235295" y="930" as="targetPoint" />
          </mxGeometry>
        </mxCell>
        <mxCell id="KljS54eoszbg3P8RCO2P-38" value="soma" style="shape=display;whiteSpace=wrap;html=1;" vertex="1" parent="1">
          <mxGeometry x="340" y="810" width="120" height="60" as="geometry" />
        </mxCell>
        <mxCell id="KljS54eoszbg3P8RCO2P-39" value="Fim" style="ellipse;whiteSpace=wrap;html=1;" vertex="1" parent="1">
          <mxGeometry x="327.5" y="940" width="145" height="60" as="geometry" />
        </mxCell>
      </root>
    </mxGraphModel>
  </diagram>
</mxfile>
